<svg width="20" height="20" viewBox="0 0 20 20" fill="none" xmlns="http://www.w3.org/2000/svg">
<g clip-path="url(#clip0_1976_2407)">
<path d="M10.0004 13.3333C9.39039 13.3339 8.80131 13.1109 8.34457 12.7066C8.07207 12.4641 7.81373 12.2283 7.64457 12.0591L5.2504 9.70575C5.10306 9.54892 5.0221 9.34117 5.02446 9.126C5.02683 8.91082 5.11234 8.70491 5.2631 8.55135C5.41385 8.3978 5.61816 8.30851 5.83325 8.30219C6.04835 8.29586 6.25755 8.37299 6.41707 8.51742L8.81707 10.8749C8.97373 11.0308 9.20707 11.2424 9.44957 11.4583C9.6018 11.5925 9.79782 11.6666 10.0008 11.6666C10.2038 11.6666 10.3998 11.5925 10.5521 11.4583C10.7937 11.2433 11.0271 11.0316 11.1787 10.8808L13.5837 8.51742C13.7432 8.37299 13.9525 8.29586 14.1675 8.30219C14.3826 8.30851 14.5869 8.3978 14.7377 8.55135C14.8885 8.70491 14.974 8.91082 14.9763 9.126C14.9787 9.34117 14.8977 9.54892 14.7504 9.70575L12.3521 12.0633C12.1854 12.2299 11.9296 12.4633 11.6579 12.7041C11.2012 13.1099 10.6114 13.3338 10.0004 13.3333Z" fill="#1252F7" fill-opacity="0.7"/>
<path d="M10 0.000239902C8.02219 0.000239986 6.08879 0.586731 4.4443 1.68554C2.79981 2.78436 1.51808 4.34614 0.761209 6.17341C0.00433232 8.00067 -0.193701 10.0113 0.192151 11.9511C0.578004 13.891 1.53041 15.6728 2.92894 17.0713C4.32746 18.4698 6.10929 19.4222 8.0491 19.8081C9.98891 20.1939 11.9996 19.9959 13.8268 19.239C15.6541 18.4822 17.2159 17.2004 18.3147 15.5559C19.4135 13.9115 20 11.9781 20 10.0002C19.9971 7.34895 18.9426 4.80708 17.0679 2.93234C15.1932 1.0576 12.6513 0.00310654 10 0.000239902ZM10 18.3336C8.35183 18.3336 6.74066 17.8448 5.37025 16.9292C3.99984 16.0135 2.93174 14.712 2.30101 13.1893C1.67028 11.6666 1.50525 9.991 1.82679 8.37449C2.14834 6.75798 2.94201 5.27312 4.10745 4.10768C5.27288 2.94225 6.75774 2.14857 8.37425 1.82703C9.99076 1.50549 11.6663 1.67051 13.189 2.30124C14.7118 2.93197 16.0132 4.00008 16.9289 5.37049C17.8446 6.7409 18.3333 8.35206 18.3333 10.0002C18.3309 12.2096 17.4522 14.3278 15.8899 15.8901C14.3276 17.4524 12.2094 18.3311 10 18.3336Z" fill="#1252F7" fill-opacity="0.7"/>
</g>
<defs>
<clipPath id="clip0_1976_2407">
<rect y="20" width="20" height="20" transform="rotate(-90 0 20)" fill="white"/>
</clipPath>
</defs>
</svg>
