<svg width="248" height="247" viewBox="0 0 248 247" fill="none" xmlns="http://www.w3.org/2000/svg">
<circle cx="136.5" cy="25.5" r="25.5" fill="#EF0B0B"/>
<path fill-rule="evenodd" clip-rule="evenodd" d="M245.449 210.237C243.879 112.488 190.763 33.9307 125.012 33.5657C59.2615 33.2007 5.27682 111.164 2.62119 208.889L245.449 210.237Z" fill="#D9D9D9"/>
<path fill-rule="evenodd" clip-rule="evenodd" d="M245.449 210.237C243.879 112.488 190.763 33.9307 125.012 33.5657C59.2615 33.2007 5.27682 111.164 2.62119 208.889L245.449 210.237Z" fill="black" fill-opacity="0.2"/>
<ellipse cx="123.635" cy="210.466" rx="123.019" ry="34.1789" transform="rotate(-1.06817 123.635 210.466)" fill="#646464"/>
<path d="M42.336 230.384C40.288 230.384 38.624 229.744 37.344 228.464C36.1067 227.184 35.488 225.264 35.488 222.704C35.488 221.637 35.6587 220.251 36 218.544L40.352 198H49.568L44.96 219.76C44.832 220.4 44.768 220.997 44.768 221.552C44.768 223.301 45.408 224.176 46.688 224.176C47.8827 224.176 48.9067 223.685 49.76 222.704C50.6133 221.68 51.296 220.293 51.808 218.544L56.16 198H65.376L60.768 219.76C60.64 220.4 60.576 220.997 60.576 221.552C60.576 223.301 61.216 224.176 62.496 224.176C63.6907 224.176 64.7147 223.685 65.568 222.704C66.4213 221.68 67.104 220.293 67.616 218.544L71.968 198H81.184L76.576 219.76C76.4053 220.4 76.32 221.083 76.32 221.808C76.32 222.661 76.512 223.28 76.896 223.664C77.3227 224.005 78.0053 224.176 78.944 224.176C80.1387 224.176 81.1627 223.664 82.016 222.64C82.912 221.616 83.616 220.251 84.128 218.544H86.816C85.2373 223.152 83.2747 226.288 80.928 227.952C78.624 229.573 76.2987 230.384 73.952 230.384C72.1173 230.384 70.6453 229.872 69.536 228.848C68.4693 227.824 67.8293 226.309 67.616 224.304C66.1653 226.651 64.6293 228.251 63.008 229.104C61.4293 229.957 59.808 230.384 58.144 230.384C56.3093 230.384 54.8373 229.872 53.728 228.848C52.6613 227.824 52.0213 226.309 51.808 224.304C50.3573 226.651 48.8213 228.251 47.2 229.104C45.6213 229.957 44 230.384 42.336 230.384ZM91.805 230.384C89.373 230.384 87.3463 229.552 85.725 227.888C84.1037 226.224 83.293 223.621 83.293 220.08C83.293 216.923 83.9117 213.616 85.149 210.16C86.429 206.661 88.3063 203.717 90.781 201.328C93.2983 198.896 96.285 197.68 99.741 197.68C101.49 197.68 102.792 197.979 103.645 198.576C104.498 199.173 104.925 199.963 104.925 200.944V201.392L105.629 198H114.845L110.237 219.76C110.066 220.4 109.981 221.083 109.981 221.808C109.981 223.643 110.856 224.56 112.605 224.56C113.8 224.56 114.824 224.005 115.677 222.896C116.573 221.787 117.277 220.336 117.789 218.544H120.477C118.898 223.152 116.936 226.288 114.589 227.952C112.285 229.573 109.96 230.384 107.613 230.384C105.821 230.384 104.37 229.893 103.261 228.912C102.194 227.888 101.554 226.416 101.341 224.496C100.104 226.245 98.717 227.675 97.181 228.784C95.6877 229.851 93.8957 230.384 91.805 230.384ZM95.965 224.176C97.0317 224.176 98.077 223.685 99.101 222.704C100.168 221.68 100.893 220.293 101.277 218.544L104.349 204.08C104.349 203.525 104.136 202.992 103.709 202.48C103.282 201.925 102.621 201.648 101.725 201.648C100.018 201.648 98.4823 202.651 97.117 204.656C95.7517 206.619 94.685 209.008 93.917 211.824C93.149 214.597 92.765 217.051 92.765 219.184C92.765 221.317 93.0637 222.683 93.661 223.28C94.301 223.877 95.069 224.176 95.965 224.176ZM140.917 230.384C138.314 230.384 136.394 229.701 135.157 228.336C133.962 226.928 133.365 225.2 133.365 223.152C133.365 222.256 133.471 221.253 133.685 220.144C133.898 218.992 134.111 217.883 134.325 216.816C134.581 215.749 134.751 215.067 134.837 214.768C135.178 213.275 135.498 211.803 135.797 210.352C136.095 208.901 136.245 207.728 136.245 206.832C136.245 204.656 135.477 203.568 133.941 203.568C132.831 203.568 131.85 204.123 130.997 205.232C130.143 206.299 129.461 207.707 128.949 209.456L124.597 230H115.38L122.165 198H131.381L130.677 201.328C132.81 198.939 135.306 197.744 138.165 197.744C140.341 197.744 142.069 198.341 143.349 199.536C144.629 200.731 145.269 202.544 145.269 204.976C145.269 206.213 145.119 207.6 144.821 209.136C144.522 210.629 144.095 212.464 143.541 214.64C143.199 215.963 142.879 217.264 142.581 218.544C142.325 219.781 142.197 220.763 142.197 221.488C142.197 222.341 142.389 223.003 142.773 223.472C143.157 223.941 143.818 224.176 144.757 224.176C146.037 224.176 147.061 223.728 147.829 222.832C148.597 221.893 149.365 220.464 150.132 218.544H152.821C151.242 223.237 149.407 226.395 147.317 228.016C145.269 229.595 143.135 230.384 140.917 230.384ZM173.229 230.384C170.669 230.384 168.728 229.765 167.405 228.528C166.125 227.248 165.485 225.499 165.485 223.28C165.485 222.683 165.634 221.488 165.933 219.696C166.146 218.629 166.253 217.797 166.253 217.2C166.253 215.152 165.442 214.128 163.821 214.128C163.266 214.128 162.733 214.299 162.221 214.64C161.752 214.939 160.92 215.557 159.725 216.496L156.909 230H147.693L154.541 198H163.757L161.005 210.672C163.906 207.259 166.21 204.656 167.917 202.864C169.624 201.072 171.181 199.728 172.589 198.832C174.04 197.893 175.448 197.424 176.813 197.424C179.458 197.424 180.781 198.832 180.781 201.648C180.781 202.928 180.418 203.952 179.693 204.72C179.01 205.445 178.029 205.808 176.749 205.808C175.554 205.808 174.658 205.488 174.061 204.848C173.464 204.165 173.186 203.397 173.229 202.544C172.418 203.056 171.693 203.632 171.053 204.272C170.413 204.912 169.709 205.744 168.941 206.768C168.045 207.963 167.17 208.987 166.317 209.84C167.17 209.669 168.066 209.584 169.005 209.584C171.224 209.584 172.781 210.075 173.677 211.056C174.616 212.037 175.085 213.531 175.085 215.536C175.085 216.133 174.957 217.115 174.701 218.48C174.445 219.931 174.317 221.04 174.317 221.808C174.317 223.387 175.17 224.176 176.877 224.176C178.072 224.176 179.01 223.771 179.693 222.96C180.418 222.149 181.25 220.677 182.189 218.544H184.877C182.189 226.437 178.306 230.384 173.229 230.384ZM188.524 230.384C186.476 230.384 184.812 229.744 183.532 228.464C182.294 227.184 181.675 225.264 181.675 222.704C181.675 221.637 181.846 220.251 182.188 218.544L186.54 198H195.756L191.148 219.76C191.02 220.272 190.956 220.805 190.956 221.36C190.956 223.237 191.596 224.176 192.876 224.176C194.07 224.176 195.094 223.685 195.948 222.704C196.801 221.68 197.484 220.293 197.996 218.544L202.348 198H211.564L206.956 219.76C206.785 220.4 206.7 221.083 206.7 221.808C206.7 222.661 206.892 223.28 207.276 223.664C207.702 224.005 208.385 224.176 209.324 224.176C210.006 224.176 210.497 224.133 210.796 224.048C211.137 223.92 211.35 223.835 211.436 223.792C211.265 225.968 210.518 227.611 209.196 228.72C207.873 229.829 206.252 230.384 204.332 230.384C202.54 230.384 201.089 229.851 199.98 228.784C198.913 227.717 198.273 226.224 198.06 224.304C196.609 226.651 195.073 228.251 193.452 229.104C191.873 229.957 190.23 230.384 188.524 230.384Z" fill="white"/>
</svg>